<?xml version="1.0" encoding="utf-8"?>
<!-- Generator: Adobe Illustrator 24.1.3, SVG Export Plug-In . SVG Version: 6.00 Build 0)  -->
<svg version="1.1" id="Layer_1" xmlns="http://www.w3.org/2000/svg" xmlns:xlink="http://www.w3.org/1999/xlink" x="0px" y="0px"
	 viewBox="0 0 170.08 170.08" style="enable-background:new 0 0 170.08 170.08;" xml:space="preserve">
<style type="text/css">
	.st0{fill:#FFFFFF;stroke:#1D1D1B;stroke-width:2;stroke-miterlimit:10;}
	.st1{fill:#840071;stroke:#000000;stroke-miterlimit:10;}
	.st2{stroke:#DD9300;stroke-width:2;}
</style>
<circle class="st0" cx="85.04" cy="85.04" r="82.2"/>
<circle class="st1" cx="85.04" cy="85.04" r="76.98"/>
<polygon class="st2" points="85.04,11.34 89.65,45.62 102.04,13.33 98.61,47.75 118.12,19.18 106.85,51.88 132.41,28.58 
	113.91,57.81 144.16,41.03 119.41,65.2 152.71,55.85 123.06,73.66 157.62,72.24 124.66,82.73 158.62,89.32 124.12,91.93 
	155.64,106.18 121.48,100.76 148.87,121.89 116.87,108.74 138.65,135.62 110.55,115.44 125.54,146.62 102.85,120.5 110.25,154.3 
	94.19,123.65 93.6,158.24 85.04,124.72 76.48,158.24 75.89,123.65 59.83,154.3 67.23,120.5 44.54,146.62 59.53,115.44 31.43,135.62 
	53.21,108.74 21.21,121.89 48.6,100.76 14.43,106.18 45.96,91.93 11.46,89.32 45.42,82.73 12.46,72.24 47.02,73.66 17.37,55.85 
	50.67,65.2 25.92,41.03 56.17,57.81 37.67,28.58 63.23,51.88 51.96,19.18 71.47,47.75 68.04,13.33 80.43,45.62 "/>
<polygon class="st1" points="85.04,17.01 87.34,65.33 100.73,18.84 91.83,66.39 115.57,24.24 95.94,68.46 128.77,32.92 99.47,71.42 
	139.61,44.41 102.22,75.12 147.51,58.09 104.05,79.35 152.04,73.23 104.85,83.89 152.96,89 104.58,88.48 150.21,104.55 103.26,92.9 
	143.96,119.06 100.96,96.89 134.52,131.73 97.79,100.24 122.42,141.88 93.94,102.77 108.31,148.97 89.62,104.35 92.94,152.61 
	85.04,104.88 77.14,152.61 80.46,104.35 61.77,148.97 76.13,102.77 47.66,141.88 72.28,100.24 35.56,131.73 69.12,96.89 
	26.12,119.06 66.82,92.9 19.87,104.55 65.5,88.48 17.12,89 65.23,83.89 18.04,73.23 66.03,79.35 22.57,58.09 67.86,75.12 
	30.47,44.41 70.61,71.42 41.31,32.92 74.14,68.46 54.51,24.24 78.25,66.39 69.35,18.84 82.74,65.33 "/>
</svg>
