<?xml version="1.0" encoding="utf-8"?>
<!-- Generator: Adobe Illustrator 24.1.3, SVG Export Plug-In . SVG Version: 6.00 Build 0)  -->
<svg version="1.1" id="Layer_1" xmlns="http://www.w3.org/2000/svg" xmlns:xlink="http://www.w3.org/1999/xlink" x="0px" y="0px"
	 viewBox="0 0 170.08 170.08" style="enable-background:new 0 0 170.08 170.08;" xml:space="preserve">
<style type="text/css">
	.st0{fill:#FFFFFF;stroke:#1D1D1B;stroke-width:2;stroke-miterlimit:10;}
	.st1{fill:#840071;stroke:#000000;stroke-miterlimit:10;}
	.st2{fill:#EF4B57;stroke:#231F20;stroke-width:4;stroke-linecap:round;stroke-linejoin:round;stroke-miterlimit:10;}
	.st3{fill:#FF7C10;stroke:#EA5CD6;stroke-width:2;stroke-linecap:round;stroke-linejoin:round;stroke-miterlimit:10;}
	.st4{fill:#FFC200;stroke:#231F20;stroke-width:3;stroke-linecap:round;stroke-linejoin:round;stroke-miterlimit:10;}
</style>
<circle class="st0" cx="85.04" cy="85.04" r="82.2"/>
<circle class="st1" cx="85.04" cy="85.04" r="76.98"/>
<path class="st2" d="M148.09,80.11c-2.53-7.77-10.87-12.03-18.65-9.5c7.77-2.52,12.03-10.87,9.5-18.64
	c-2.53-7.77-10.87-12.03-18.64-9.5c-2.39,0.78-4.76,2.09-7.08,3.79c-5.89,17.95-28.18,38.79-28.18,38.79s35.45,19.6,53.55,13.72
	C146.36,96.23,150.62,87.88,148.09,80.11z"/>
<polygon class="st3" points="115.3,71.4 106.07,66.95 84.94,85.04 112.09,91.09 118.15,82.82 111.87,78.32 "/>
<path class="st2" d="M85.04,38.35c0-8.17-6.62-14.8-14.8-14.8c-8.17,0-14.8,6.62-14.8,14.8c0,19.04,29.59,46.69,29.59,46.69
	s29.59-27.66,29.59-46.69c0-8.17-6.63-14.8-14.8-14.8C91.66,23.55,85.04,30.18,85.04,38.35"/>
<polygon class="st3" points="81.35,51.95 74.27,59.36 84.94,85.04 99.09,61.09 93.1,52.77 86.88,57.36 "/>
<path class="st2" d="M40.63,70.61c-7.77-2.53-16.12,1.73-18.65,9.5c-2.53,7.77,1.73,16.12,9.5,18.65
	c18.1,5.88,53.55-13.72,53.55-13.72S67.88,48.35,49.78,42.46c-7.77-2.53-16.12,1.73-18.65,9.5S32.86,68.09,40.63,70.61"/>
<polygon class="st3" points="52.37,78.22 57.22,87.25 84.94,85.04 66.54,64.18 56.78,67.31 59.21,74.64 "/>
<path class="st2" d="M57.6,122.81c-4.8,6.61-3.34,15.87,3.27,20.67c6.61,4.8,15.87,3.34,20.67-3.27c11.19-15.4,3.5-55.17,3.5-55.17
	s-40.2,4.98-51.39,20.38c-4.8,6.61-3.34,15.87,3.27,20.67C43.54,130.89,52.79,129.42,57.6,122.81"/>
<polygon class="st3" points="68.4,113.91 78.48,112.09 84.94,85.04 59.42,96.09 59.38,106.34 67.11,106.29 "/>
<path class="st2" d="M130.63,99.85c-18.89-0.05-45.59-14.81-45.59-14.81s-7.69,39.77,3.5,55.17c4.8,6.61,14.06,8.08,20.67,3.27
	c6.61-4.8,8.08-14.06,3.27-20.67c4.8,6.61,14.06,8.08,20.67,3.27c6.61-4.8,8.08-14.06,3.27-20.67
	C134.95,103.38,132.96,101.53,130.63,99.85z"/>
<polygon class="st3" points="107.29,109.69 108.67,99.54 84.94,85.04 87.57,112.72 97.31,115.93 99.65,108.57 "/>
<circle class="st4" cx="85.04" cy="85.04" r="8.01"/>
</svg>
