<?xml version="1.0" encoding="utf-8"?>
<!-- Generator: Adobe Illustrator 24.1.3, SVG Export Plug-In . SVG Version: 6.00 Build 0)  -->
<svg version="1.1" id="Layer_1" xmlns="http://www.w3.org/2000/svg" xmlns:xlink="http://www.w3.org/1999/xlink" x="0px" y="0px"
	 viewBox="0 0 170.08 170.08" style="enable-background:new 0 0 170.08 170.08;" xml:space="preserve">
<style type="text/css">
	.st0{fill:#FFFFFF;stroke:#1D1D1B;stroke-width:2;stroke-miterlimit:10;}
	.st1{fill:#840071;stroke:#000000;stroke-miterlimit:10;}
	.st2{fill:#FFFFFF;}
	.st3{fill:#E068DB;}
	.st4{fill:#FEDA01;}
	.st5{fill:#FAA423;}
	.st6{fill:#000A1F;}
</style>
<circle class="st0" cx="85.04" cy="85.04" r="82.2"/>
<circle class="st1" cx="85.04" cy="85.04" r="76.98"/>
<rect x="64.27" y="116.44" class="st2" width="40.2" height="16.27"/>
<path class="st3" d="M84.96,26.69c-31.3,0-56.79,21.75-56.79,48.41c0,6.39,1.41,12.54,4.23,18.35c1.99,4.15,3.32,8.47,4.07,12.87
	l0.08,0.25c1.16,6.81,6.73,12.21,13.53,13.2c2.16,0.33,4.82,0.33,7.14,0.33c1.16,0,2.24,0.42,3.07,1.25s1.33,1.99,1.33,3.16v10.71
	c0,2.74,2.24,4.98,4.98,4.98h36.78c2.74,0,4.98-2.24,4.98-4.98V124.5c0-1.16,0.5-2.32,1.33-3.16c0.83-0.83,1.91-1.25,3.07-1.25
	c0,0,0,0,0.08,0c2.08,0,3.9,0,5.73-0.17c7.22-0.66,13.28-5.9,14.78-12.62c0.08-0.33,0.08-0.58,0.17-0.91
	c0.75-4.65,2.08-8.88,3.9-12.7c2.91-5.9,4.32-12.12,4.32-18.6C141.75,48.44,116.26,26.69,84.96,26.69z M79.81,118.93
	c1.83,0,3.4,1.91,3.82,4.4h-7.56C76.49,120.84,77.98,118.93,79.81,118.93z M70.67,128.73c-1.16,0-2.24-1.25-2.57-2.91h5.15
	C72.92,127.49,71.84,128.73,70.67,128.73z M68.1,123.34c0.42-1.66,1.41-2.91,2.66-2.91c1.16,0,2.24,1.25,2.57,2.91H68.1z
	 M60.71,96.18c-7.06,0-12.7-5.65-12.7-12.7s5.73-12.7,12.7-12.7s12.7,5.65,12.7,12.7S67.77,96.18,60.71,96.18z M79.89,130.23
	c-1.83,0-3.4-1.91-3.82-4.4h7.64C83.3,128.32,81.72,130.23,79.89,130.23z M90.1,118.93c1.83,0,3.4,1.91,3.82,4.4h-7.56
	C86.7,120.84,88.28,118.93,90.1,118.93z M90.19,130.23c-1.83,0-3.4-1.91-3.82-4.4h7.64C93.59,128.32,92.01,130.23,90.19,130.23z
	 M99.24,128.73c-1.16,0-2.24-1.25-2.57-2.91h5.15C101.48,127.49,100.4,128.73,99.24,128.73z M96.66,123.34
	c0.33-1.66,1.41-2.91,2.66-2.91c1.16,0,2.24,1.25,2.57,2.91H96.66z M109.28,96.18c-7.06,0-12.7-5.65-12.7-12.7s5.73-12.7,12.7-12.7
	s12.7,5.65,12.7,12.7S116.34,96.18,109.28,96.18z"/>
<g>
	<g>
		<path class="st4" d="M78.98,46.95l5.98,6.06l0,0l0,0l5.98-6.06c1.41-1.41,1.41-3.74,0-5.15c-1.41-1.41-3.74-1.41-5.15,0
			l-0.83,0.83l-0.83-0.83c-1.41-1.41-3.74-1.41-5.15,0C77.57,43.21,77.57,45.53,78.98,46.95z"/>
		<path class="st5" d="M106.3,37.98c-1.83-0.91-3.99-0.17-4.9,1.66l-0.5,1.08l-1.08-0.5c-1.83-0.91-3.99-0.17-4.9,1.66
			c-0.91,1.83-0.17,3.99,1.66,4.9l7.64,3.74l0,0l0,0l3.74-7.64C108.87,41.05,108.12,38.81,106.3,37.98z"/>
		<path class="st4" d="M113.02,39.89l8.47,0.91l0,0l0,0l0.5-4.9c-2.16-1.49-4.48-2.91-6.89-4.15l-0.08,1l-1.25-0.08
			c-1.99-0.17-3.82,1.25-3.99,3.24C109.62,37.9,111.03,39.64,113.02,39.89z"/>
		<path class="st5" d="M75.08,41.88c-0.91-1.83-3.07-2.57-4.9-1.66l-1.08,0.5l-0.5-1.08c-0.91-1.83-3.07-2.57-4.9-1.66
			c-1.83,0.91-2.57,3.07-1.66,4.9l3.74,7.64l0,0l0,0l7.64-3.74C75.24,45.87,75.99,43.63,75.08,41.88z"/>
		<path class="st4" d="M48.42,40.72L48.42,40.72L48.42,40.72l8.47-0.83c1.99-0.25,3.49-1.99,3.24-3.99
			c-0.17-1.99-1.99-3.49-3.99-3.24l-1.25,0.08l-0.08-1c-2.41,1.25-4.73,2.66-6.89,4.15L48.42,40.72z"/>
	</g>
	<path class="st6" d="M103.39,144.34H66.61c-5.06,0-9.13-4.07-9.13-9.13V124.5c0-0.08-0.08-0.17-0.08-0.17
		c-0.08-0.08-0.08-0.08-0.17-0.08c-2.41,0-5.23,0-7.72-0.33c-8.55-1.25-15.53-8.05-17.02-16.61l-0.08-0.33
		c-0.58-3.99-1.83-7.89-3.65-11.71c-3.07-6.39-4.65-13.2-4.65-20.18c0-28.98,27.32-52.56,60.94-52.56s60.94,23.58,60.94,52.56
		c0,7.06-1.58,13.95-4.73,20.43c-1.66,3.4-2.91,7.31-3.57,11.54c-0.08,0.33-0.17,0.75-0.25,1.08c-1.91,8.64-9.3,15.03-18.43,15.86
		c-1.99,0.17-3.9,0.17-6.14,0.17c-0.08,0-0.17,0-0.17,0.08c0,0-0.08,0.08-0.08,0.17v10.71
		C112.52,140.27,108.45,144.34,103.39,144.34z M57.22,120.1c1.16,0,2.24,0.42,3.07,1.25c0.83,0.83,1.33,1.99,1.33,3.16v10.71
		c0,2.74,2.24,4.98,4.98,4.98h36.78c2.74,0,4.98-2.24,4.98-4.98V124.5c0-1.16,0.5-2.32,1.33-3.16c0.83-0.83,1.91-1.25,3.07-1.25
		c0,0,0,0,0.08,0c2.08,0,3.9,0,5.73-0.17c7.22-0.66,13.28-5.9,14.78-12.62c0.08-0.33,0.08-0.58,0.17-0.91
		c0.75-4.65,2.08-8.88,3.9-12.7c2.91-5.9,4.32-12.12,4.32-18.6c0-26.65-25.49-48.41-56.79-48.41S28.16,48.44,28.16,75.09
		c0,6.39,1.41,12.54,4.23,18.35c1.99,4.15,3.32,8.47,4.07,12.87l0.08,0.25c1.16,6.81,6.73,12.21,13.53,13.2
		C52.24,120.1,54.9,120.1,57.22,120.1C57.14,120.1,57.14,120.1,57.22,120.1z"/>
	<g>
		<path class="st6" d="M60.71,100.25c-9.3,0-16.86-7.56-16.86-16.86s7.56-16.86,16.86-16.86S77.57,74.1,77.57,83.4
			S70.01,100.25,60.71,100.25z M60.71,70.78c-6.97,0-12.7,5.65-12.7,12.7c0,7.06,5.65,12.7,12.7,12.7s12.7-5.65,12.7-12.7
			C73.42,76.42,67.69,70.78,60.71,70.78z"/>
		<path class="st6" d="M109.28,100.25c-9.3,0-16.86-7.56-16.86-16.86s7.56-16.86,16.86-16.86s16.86,7.56,16.86,16.86
			S118.58,100.25,109.28,100.25z M109.28,70.78c-6.97,0-12.7,5.65-12.7,12.7c0,7.06,5.65,12.7,12.7,12.7s12.7-5.65,12.7-12.7
			C121.99,76.42,116.26,70.78,109.28,70.78z"/>
	</g>
	<g>
		<g>
			<path class="st6" d="M75.99,125.83H65.53v-1.25c0-3.65,2.32-6.64,5.23-6.64s5.23,2.99,5.23,6.64
				C75.99,124.58,75.99,125.83,75.99,125.83z M68.1,123.34h5.23c-0.33-1.66-1.41-2.91-2.57-2.91
				C69.51,120.43,68.52,121.67,68.1,123.34z"/>
			<path class="st6" d="M104.47,125.83H94.01v-1.25c0-3.65,2.32-6.64,5.23-6.64s5.23,2.99,5.23,6.64V125.83z M96.66,123.34h5.23
				c-0.33-1.66-1.41-2.91-2.57-2.91C98.08,120.43,97,121.67,96.66,123.34z"/>
			<path class="st6" d="M86.2,125.83H73.42v-1.25c0-4.48,2.82-8.14,6.39-8.14c3.49,0,6.39,3.65,6.39,8.14V125.83z M76.07,123.34
				h7.56c-0.42-2.49-1.99-4.4-3.82-4.4C77.98,118.93,76.49,120.84,76.07,123.34z"/>
			<path class="st6" d="M96.5,125.83H83.71v-1.25c0-4.48,2.82-8.14,6.39-8.14s6.39,3.65,6.39,8.14V125.83z M86.37,123.34h7.56
				c-0.42-2.49-1.99-4.4-3.82-4.4S86.7,120.84,86.37,123.34z"/>
		</g>
		<g>
			<path class="st6" d="M99.24,131.22c-2.91,0-5.23-2.99-5.23-6.64v-1.25h10.46v1.25C104.47,128.23,102.14,131.22,99.24,131.22z
				 M96.66,125.83c0.33,1.66,1.41,2.91,2.57,2.91c1.16,0,2.24-1.25,2.57-2.91H96.66z"/>
			<path class="st6" d="M70.76,131.22c-2.91,0-5.23-2.99-5.23-6.64v-1.25h10.46v1.25C75.99,128.23,73.66,131.22,70.76,131.22z
				 M68.1,125.83c0.33,1.66,1.41,2.91,2.57,2.91s2.24-1.25,2.57-2.91H68.1z"/>
			<path class="st6" d="M90.1,132.72c-3.49,0-6.39-3.65-6.39-8.14v-1.25H96.5v1.25C96.5,129.06,93.67,132.72,90.1,132.72z
				 M86.37,125.83c0.42,2.49,1.99,4.4,3.82,4.4c1.83,0,3.4-1.91,3.82-4.4H86.37z"/>
			<path class="st6" d="M79.89,132.72c-3.49,0-6.39-3.65-6.39-8.14v-1.25h12.79v1.25C86.2,129.06,83.38,132.72,79.89,132.72z
				 M76.07,125.83c0.42,2.49,1.99,4.4,3.82,4.4s3.4-1.91,3.82-4.4H76.07z"/>
		</g>
	</g>
	<path class="st6" d="M83.38,94.69c-3.4,5.15-10.05,16.61,1.66,12.7c11.71,3.9,5.06-7.56,1.66-12.7
		C85.87,93.53,84.13,93.53,83.38,94.69z"/>
	<g>
		<g>
			<circle class="st5" cx="60.71" cy="63.3" r="2.24"/>
			<circle class="st5" cx="60.71" cy="103.57" r="2.24"/>
		</g>
		<g>
			<ellipse class="st4" cx="50.64" cy="65.95" rx="2.24" ry="2.24"/>
			<ellipse class="st4" cx="70.77" cy="100.93" rx="2.24" ry="2.24"/>
		</g>
		<g>
			<ellipse class="st5" cx="43.25" cy="73.35" rx="2.24" ry="2.24"/>
			<ellipse class="st5" cx="78.16" cy="93.55" rx="2.24" ry="2.24"/>
		</g>
		<g>
			<circle class="st4" cx="40.53" cy="83.48" r="2.24"/>
			<circle class="st4" cx="80.89" cy="83.48" r="2.24"/>
		</g>
		<g>
			<ellipse class="st5" cx="43.27" cy="93.52" rx="2.24" ry="2.24"/>
			<ellipse class="st5" cx="78.14" cy="73.36" rx="2.24" ry="2.24"/>
		</g>
		<g>
			<ellipse class="st4" cx="50.66" cy="100.89" rx="2.24" ry="2.24"/>
			<ellipse class="st4" cx="70.75" cy="66.01" rx="2.24" ry="2.24"/>
		</g>
	</g>
	<g>
		<g>
			<circle class="st5" cx="109.28" cy="63.3" r="2.24"/>
			<circle class="st5" cx="109.28" cy="103.57" r="2.24"/>
		</g>
		<g>
			<ellipse class="st4" cx="99.21" cy="65.94" rx="2.24" ry="2.24"/>
			<ellipse class="st4" cx="119.34" cy="100.92" rx="2.24" ry="2.24"/>
		</g>
		<g>
			<ellipse class="st5" cx="91.81" cy="73.34" rx="2.24" ry="2.24"/>
			<ellipse class="st5" cx="126.72" cy="93.54" rx="2.24" ry="2.24"/>
		</g>
		<g>
			<circle class="st4" cx="89.11" cy="83.48" r="2.24"/>
			<circle class="st4" cx="129.46" cy="83.48" r="2.24"/>
		</g>
		<g>
			<ellipse class="st5" cx="91.84" cy="93.51" rx="2.24" ry="2.24"/>
			<ellipse class="st5" cx="126.71" cy="73.35" rx="2.24" ry="2.24"/>
		</g>
		<g>
			<ellipse class="st4" cx="99.22" cy="100.88" rx="2.24" ry="2.24"/>
			<ellipse class="st4" cx="119.31" cy="66" rx="2.24" ry="2.24"/>
		</g>
	</g>
</g>
</svg>
